<svg class="border shadow-md" viewBox="0 0 1339.1644444444446 753.28" xmlns="http://www.w3.org/2000/svg" preserveAspectRatio="none" style="width: 1339.16px; height: 753.28px;"><rect class="bg" id="bg" x="0" y="0" width="1339.1644444444446" height="753.28" fill="#506778"/><path d="M 0 -75.328 L 0 -75.33&#10;                L 89.28 -37.66&#10;                L 267.83288888888893 -75.33 L 267.83288888888893 -75.33&#10;                L 367.83 -37.66&#10;                L 535.6657777777779 -75.33 L 535.6657777777779 -75.33&#10;                L 624.94 -37.66&#10;                L 803.4986666666668 -75.33 L 803.4986666666668 -75.33&#10;                L 892.78 -5.33&#10;                L 1071.3315555555557 -75.33 L 1071.3315555555557 -75.33&#10;                L 1226.33 -37.66&#10;                L 1339.1644444444446 -75.33 L 1339.1644444444446 -75.33&#10;                L 1500.16 -6.33&#10;                L 1606.9973333333335 -75.33  V 753.28 H 0 V -75.33 Z" fill="#00ADB4"/><path d="M 0 0 L 0 0.00&#10;                L 98.00 55.00&#10;                L 267.83288888888893 0.00 L 267.83288888888893 0.00&#10;                L 436.83 37.66&#10;                L 535.6657777777779 0.00 L 535.6657777777779 0.00&#10;                L 624.94 37.66&#10;                L 803.4986666666668 0.00 L 803.4986666666668 0.00&#10;                L 919.50 67.00&#10;                L 1071.3315555555557 0.00 L 1071.3315555555557 0.00&#10;                L 1259.33 37.66&#10;                L 1339.1644444444446 0.00 L 1339.1644444444446 0.00&#10;                L 1448.16 37.66&#10;                L 1606.9973333333335 0.00  V 753.28 H 0 V 0.00 Z" fill="#04a3aa"/><path d="M 0 75.328 L 0 75.33&#10;                L 138.00 112.99&#10;                L 267.83288888888893 75.33 L 267.83288888888893 75.33&#10;                L 363.83 112.99&#10;                L 535.6657777777779 75.33 L 535.6657777777779 75.33&#10;                L 624.94 114.33&#10;                L 803.4986666666668 75.33 L 803.4986666666668 75.33&#10;                L 892.78 112.99&#10;                L 1071.3315555555557 75.33 L 1071.3315555555557 75.33&#10;                L 1160.61 112.99&#10;                L 1339.1644444444446 75.33 L 1339.1644444444446 75.33&#10;                L 1428.44 124.33&#10;                L 1606.9973333333335 75.33  V 753.28 H 0 V 75.33 Z" fill="#0899a0"/><path d="M 0 150.656 L 0 150.66&#10;                L 89.28 199.66&#10;                L 267.83288888888893 150.66 L 267.83288888888893 150.66&#10;                L 359.83 188.32&#10;                L 535.6657777777779 150.66 L 535.6657777777779 150.66&#10;                L 629.67 188.32&#10;                L 803.4986666666668 150.66 L 803.4986666666668 150.66&#10;                L 975.50 188.32&#10;                L 1071.3315555555557 150.66 L 1071.3315555555557 150.66&#10;                L 1160.61 188.32&#10;                L 1339.1644444444446 150.66 L 1339.1644444444446 150.66&#10;                L 1428.44 188.32&#10;                L 1606.9973333333335 150.66  V 753.28 H 0 V 150.66 Z" fill="#0c8f96"/><path d="M 0 225.984 L 0 225.98&#10;                L 89.28 263.65&#10;                L 267.83288888888893 225.98 L 267.83288888888893 225.98&#10;                L 384.83 263.65&#10;                L 535.6657777777779 225.98 L 535.6657777777779 225.98&#10;                L 624.94 299.98&#10;                L 803.4986666666668 225.98 L 803.4986666666668 225.98&#10;                L 992.50 273.98&#10;                L 1071.3315555555557 225.98 L 1071.3315555555557 225.98&#10;                L 1224.33 263.65&#10;                L 1339.1644444444446 225.98 L 1339.1644444444446 225.98&#10;                L 1428.44 289.98&#10;                L 1606.9973333333335 225.98  V 753.28 H 0 V 225.98 Z" fill="#10858c"/><path d="M 0 301.312 L 0 301.31&#10;                L 89.28 338.98&#10;                L 267.83288888888893 301.31 L 267.83288888888893 301.31&#10;                L 414.83 345.31&#10;                L 535.6657777777779 301.31 L 535.6657777777779 301.31&#10;                L 704.67 373.31&#10;                L 803.4986666666668 301.31 L 803.4986666666668 301.31&#10;                L 981.50 338.98&#10;                L 1071.3315555555557 301.31 L 1071.3315555555557 301.31&#10;                L 1160.61 338.98&#10;                L 1339.1644444444446 301.31 L 1339.1644444444446 301.31&#10;                L 1486.16 338.98&#10;                L 1606.9973333333335 301.31  V 753.28 H 0 V 301.31 Z" fill="#147b82"/><path d="M 0 376.64 L 0 376.64&#10;                L 93.00 424.64&#10;                L 267.83288888888893 376.64 L 267.83288888888893 376.64&#10;                L 357.11 414.30&#10;                L 535.6657777777779 376.64 L 535.6657777777779 376.64&#10;                L 682.67 439.64&#10;                L 803.4986666666668 376.64 L 803.4986666666668 376.64&#10;                L 904.50 442.64&#10;                L 1071.3315555555557 376.64 L 1071.3315555555557 376.64&#10;                L 1164.33 446.64&#10;                L 1339.1644444444446 376.64 L 1339.1644444444446 376.64&#10;                L 1461.16 414.30&#10;                L 1606.9973333333335 376.64  V 753.28 H 0 V 376.64 Z" fill="#187178"/><path d="M 0 451.968 L 0 451.97&#10;                L 195.00 502.97&#10;                L 267.83288888888893 451.97 L 267.83288888888893 451.97&#10;                L 357.11 489.63&#10;                L 535.6657777777779 451.97 L 535.6657777777779 451.97&#10;                L 624.94 510.97&#10;                L 803.4986666666668 451.97 L 803.4986666666668 451.97&#10;                L 892.78 490.97&#10;                L 1071.3315555555557 451.97 L 1071.3315555555557 451.97&#10;                L 1209.33 505.97&#10;                L 1339.1644444444446 451.97 L 1339.1644444444446 451.97&#10;                L 1428.44 511.97&#10;                L 1606.9973333333335 451.97  V 753.28 H 0 V 451.97 Z" fill="#1c676e"/><path d="M 0 527.296 L 0 527.30&#10;                L 155.00 564.96&#10;                L 267.83288888888893 527.30 L 267.83288888888893 527.30&#10;                L 357.11 564.96&#10;                L 535.6657777777779 527.30 L 535.6657777777779 527.30&#10;                L 624.94 569.30&#10;                L 803.4986666666668 527.30 L 803.4986666666668 527.30&#10;                L 892.78 564.96&#10;                L 1071.3315555555557 527.30 L 1071.3315555555557 527.30&#10;                L 1179.33 564.96&#10;                L 1339.1644444444446 527.30 L 1339.1644444444446 527.30&#10;                L 1428.44 564.96&#10;                L 1606.9973333333335 527.30  V 753.28 H 0 V 527.30 Z" fill="#205d64"/><path d="M 0 602.624 L 0 602.62&#10;                L 141.00 640.29&#10;                L 267.83288888888893 602.62 L 267.83288888888893 602.62&#10;                L 424.83 640.29&#10;                L 535.6657777777779 602.62 L 535.6657777777779 602.62&#10;                L 641.67 640.29&#10;                L 803.4986666666668 602.62 L 803.4986666666668 602.62&#10;                L 892.78 640.29&#10;                L 1071.3315555555557 602.62 L 1071.3315555555557 602.62&#10;                L 1160.61 652.62&#10;                L 1339.1644444444446 602.62 L 1339.1644444444446 602.62&#10;                L 1428.44 642.62&#10;                L 1606.9973333333335 602.62  V 753.28 H 0 V 602.62 Z" fill="#24535a"/><path d="M 0 677.952 L 0 677.95&#10;                L 144.00 715.62&#10;                L 267.83288888888893 677.95 L 267.83288888888893 677.95&#10;                L 414.83 715.62&#10;                L 535.6657777777779 677.95 L 535.6657777777779 677.95&#10;                L 624.94 740.95&#10;                L 803.4986666666668 677.95 L 803.4986666666668 677.95&#10;                L 901.50 719.95&#10;                L 1071.3315555555557 677.95 L 1071.3315555555557 677.95&#10;                L 1160.61 715.62&#10;                L 1339.1644444444446 677.95 L 1339.1644444444446 677.95&#10;                L 1428.44 731.95&#10;                L 1606.9973333333335 677.95  V 753.28 H 0 V 677.95 Z" fill="#284950"/></svg>